PathFileType	4	(X/Y/Z)	C:\Users\Basilio\Documents\Thesis Gigler\squatting_fais\c3dfiles\039\SLS_pre_back4\markers_experimental.trc
DataRate	CameraRate	NumFrames	NumMarkers	Units	OrigDataRate	OrigDataStartFrame	OrigNumFrames
200.000000	200.000000	4	64	mm	200.000000	1866	2133
Frame#	Time	FHD			LBHD			RBHD			C7			T10			CLAV			LSHO			LUUPA			LMUPA			LDUPA			LLEP			LMEP			LRAD			LUL			LRFIN			RSHO			RUPA1			RMUPA			RDUPA			RLEP			RMEP			RRAD			RUL			RUFIN			LASI			RASI			USACR			LSACR			RSACR			LTHI1			LTHI2			LTHI3			LTHI4			LLFC			LMFC			LTIB1			LTIB2			LTIB3			LTIB4			LLMAL			LMMAL			LHEE			LMT1			LMT2			LMT5			RTHI			RTHI2			RTHI3			RTHI4			RLFC			RMFC			RTIB1			RTIB2			RTIB3			RTIB4			RLMAL			RMMAL			RHEE			RMT1			RMT2			RMT5			*61			*62			*63			
		X1	Y1	Z1	X2	Y2	Z2	X3	Y3	Z3	X4	Y4	Z4	X5	Y5	Z5	X6	Y6	Z6	X7	Y7	Z7	X8	Y8	Z8	X9	Y9	Z9	X10	Y10	Z10	X11	Y11	Z11	X12	Y12	Z12	X13	Y13	Z13	X14	Y14	Z14	X15	Y15	Z15	X16	Y16	Z16	X17	Y17	Z17	X18	Y18	Z18	X19	Y19	Z19	X20	Y20	Z20	X21	Y21	Z21	X22	Y22	Z22	X23	Y23	Z23	X24	Y24	Z24	X25	Y25	Z25	X26	Y26	Z26	X27	Y27	Z27	X28	Y28	Z28	X29	Y29	Z29	X30	Y30	Z30	X31	Y31	Z31	X32	Y32	Z32	X33	Y33	Z33	X34	Y34	Z34	X35	Y35	Z35	X36	Y36	Z36	X37	Y37	Z37	X38	Y38	Z38	X39	Y39	Z39	X40	Y40	Z40	X41	Y41	Z41	X42	Y42	Z42	X43	Y43	Z43	X44	Y44	Z44	X45	Y45	Z45	X46	Y46	Z46	X47	Y47	Z47	X48	Y48	Z48	X49	Y49	Z49	X50	Y50	Z50	X51	Y51	Z51	X52	Y52	Z52	X53	Y53	Z53	X54	Y54	Z54	X55	Y55	Z55	X56	Y56	Z56	X57	Y57	Z57	X58	Y58	Z58	X59	Y59	Z59	X60	Y60	Z60	X61	Y61	Z61	X62	Y62	Z62	X63	Y63	Z63	X64	Y64	Z64	

1867	9.33	-185.003402709961	1732.5947265625	-598.6758422851564	-351.0514221191407	1765.421264648438	-708.9109497070314	-316.1875000000001	1745.427734375	-572.5888061523439	-424.5409545898439	1591.249267578125	-666.3453369140626	-469.4753723144532	1289.928466796875	-751.0500488281251	-280.9677124023438	1517.853149414063	-694.5742797851564	-367.1526489257813	1597.776489257813	-857.3269042968752	-373.5457763671876	1427.4775390625	-1021.617431640625	-326.5874328613282	1436.4306640625	-1033.248046875	-338.6622009277344	1386.886108398438	-1065.952270507813	-293.0144042968751	1350.631225585938	-1102.661865234375	-305.1921386718751	1284.800170898438	-1045.22412109375	-27.47325897216798	1336.187866210938	-983.208923339844	-19.91427803039551	1300.57666015625	-1048.891235351563	62.90001678466798	1337.315063476563	-973.2456054687502	-308.5277404785157	1523.454833984375	-502.0328979492189	-285.7543640136719	1314.678955078125	-412.9293212890626	-237.5003356933594	1322.041015625	-405.7798461914064	-243.2272186279297	1262.211547851563	-397.5363159179689	-189.6076965332032	1227.290283203125	-383.0256958007813	-207.1949462890626	1186.910034179688	-450.5403747558595	87.1562957763672	1115.0419921875	-432.7637939453126	60.47034072875978	1076.600708007813	-371.4193420410157	171.3154754638672	1095.083984375	-405.6025695800782	-315.0934143066407	1114.657470703125	-897.5457763671877	-304.1964416503907	1083.684204101563	-674.7666625976564	-491.6761474609376	1158.210693359375	-771.161560058594	-496.5122070312501	1129.445434570313	-803.1755371093752	-493.7347412109376	1122.517944335938	-744.0999755859376	-298.1603088378907	862.2706298828127	-1017.4365234375	-237.1287536621094	804.7435302734377	-1033.038696289063	-192.7185974121094	820.3120117187502	-1020.840026855469	-242.2928771972657	743.4085083007814	-1032.728271484375	-206.4521179199219	643.9398803710939	-1038.528686523438	-173.3457641601563	594.4970092773439	-939.8281250000002	-201.9888153076172	493.0718688964845	-1056.818481445313	-286.3079528808594	489.5370178222657	-1085.451049804688	-248.5538482666016	467.914276123047	-1079.951416015625	-274.7740478515626	387.5824279785157	-1054.07177734375	-408.8925170898439	266.4274597167969	-1093.102416992188	-374.9417114257813	240.8231811523438	-1015.354675292969	-483.9225463867189	231.7809295654297	-1044.415649414063	-270.2226562500001	143.9955596923828	-1085.94140625	-281.4950561523438	156.4442749023438	-1124.97119140625	-339.9637451171876	162.1484527587891	-1166.351684570313	-344.1604614257813	811.8952636718752	-624.9082031250001	-297.9930419921876	762.6892089843751	-622.6857299804689	-266.5612182617188	769.8542480468752	-626.7070922851564	-315.3838806152344	680.4475708007814	-641.0900878906251	-331.6410522460938	540.9428710937501	-676.9432983398439	-286.7963256835938	541.2517089843751	-788.1042480468752	-291.7197265625001	330.4937133789063	-702.6369628906251	-376.6818542480469	265.2921447753907	-707.4915161132814	-330.7859191894532	256.0601806640626	-704.9125366210939	-309.7748413085938	209.9976196289063	-737.6943359375001	-376.0682678222657	114.0668029785157	-728.9395751953126	-340.6940307617188	141.3220367431641	-807.616394042969	-440.4486083984376	96.4067306518555	-788.5593261718752	-213.596176147461	65.02165985107423	-796.2913208007815	-218.1099243164063	58.30163574218751	-750.3128051757814	-274.6556091308594	30.3748893737793	-705.0793457031251	nan	nan	nan	nan	nan	nan	nan	nan	nan	
1868	9.335000000000001	-183.608383178711	1732.114990234375	-599.2799682617189	-349.8323669433594	1765.364868164063	-709.4105834960939	-314.8374938964844	1745.268798828125	-573.2312011718751	-423.6311645507814	1591.427612304688	-666.8049926757814	-469.230682373047	1290.102783203125	-751.5154418945314	-280.2301025390626	1517.560546875	-695.0164794921876	-366.3807983398438	1597.464477539063	-857.9969482421877	-375.5750427246094	1425.76708984375	-1021.109375	-328.4815063476563	1433.922241210938	-1033.075561523438	-341.2698669433594	1384.737426757813	-1065.420166015625	-296.6001892089844	1347.285278320313	-1102.236328125	-309.2220764160157	1282.050659179688	-1044.270141601563	-29.81330490112305	1328.749145507813	-985.3262329101565	-23.94715881347657	1292.249877929688	-1051.461181640625	60.58623123168947	1327.240356445313	-976.413513183594	-307.6988830566407	1522.620361328125	-502.2258911132814	-288.0075073242188	1312.785278320313	-413.633758544922	-239.6807861328126	1319.338623046875	-406.4910888671876	-246.2933044433594	1259.58447265625	-398.6343383789064	-193.8258209228516	1223.618286132813	-384.1616821289064	-211.6985015869141	1184.031372070313	-451.989715576172	81.02442932128908	1106.0927734375	-433.1421508789064	53.42728424072267	1068.171752929688	-372.0898742675782	164.9340362548828	1084.431518554688	-405.8594665527345	-314.7184143066407	1114.710693359375	-897.8772583007815	-304.4266357421876	1083.643432617188	-674.9940185546876	-491.611541748047	1158.328979492188	-771.8662719726565	-496.3588256835939	1129.66552734375	-803.7503662109377	-493.7224121093751	1122.65625	-744.7422485351564	-297.6182556152344	861.9580078125002	-1017.050903320313	-236.8128356933594	804.2733154296877	-1032.198974609375	-192.8435821533204	820.1638183593752	-1020.149353027344	-242.1353759765626	742.8826904296876	-1031.922485351563	-206.3986053466797	642.9047851562501	-1037.281860351563	-173.7859497070313	594.0125122070314	-938.6738891601565	-200.672592163086	491.5997619628907	-1055.404541015625	-284.9829711914063	487.9100646972657	-1085.174072265625	-247.5972442626954	466.0921630859376	-1079.173461914063	-272.8736877441407	386.1297607421876	-1053.367553710938	-405.4629516601564	263.4218139648438	-1093.267578125	-372.1124572753907	238.4129638671876	-1015.348510742188	-480.275360107422	228.6322631835938	-1045.017944335938	-265.8964233398438	141.9053039550782	-1084.569213867188	-277.0792846679688	154.0126647949219	-1124.183471679688	-335.3339538574219	159.0757446289063	-1165.577880859375	-344.4363403320313	811.7689208984377	-625.3248291015626	-298.2235107421876	762.6734619140626	-622.9426269531251	-266.8785095214844	769.8665771484377	-626.9126586914064	-315.5486755371094	680.4237670898439	-641.4125976562501	-331.6436462402344	540.9494018554689	-677.2235107421876	-286.6007995605469	541.2271728515626	-788.5753173828127	-291.6822509765626	330.5253906250001	-702.9276123046876	-376.6639709472657	265.1705627441407	-707.6726684570314	-330.7688598632813	256.0289611816407	-705.1261596679689	-309.7602844238282	210.0423126220704	-737.9523925781251	-376.0233459472657	114.0874633789063	-729.0683593750001	-340.7331542968751	141.2513122558594	-807.7442016601565	-440.4182739257814	96.42729949951175	-788.6508789062502	-213.5813446044922	64.93244934082033	-796.3953857421877	-218.0569610595704	58.22389221191408	-750.4087524414064	-274.6570434570313	30.43099403381348	-705.0639648437501	nan	nan	nan	nan	nan	nan	nan	nan	nan	
1869	9.34	-182.5570068359375	1731.360107421875	-599.1939086914064	-348.2567443847657	1765.180053710938	-710.0178222656251	-313.3831176757813	1745.084228515625	-573.7869873046876	-422.7870483398439	1591.400024414063	-667.2136840820314	-469.1439514160157	1290.179443359375	-752.0122680664064	-279.7105712890626	1517.350219726563	-695.3325195312501	-365.7364501953126	1597.186889648438	-858.8220214843752	-377.5015258789063	1424.243530273438	-1020.654663085938	-330.6557006835938	1431.554809570313	-1032.951293945313	-344.0376892089844	1382.232055664063	-1064.9013671875	-300.1560363769532	1343.966064453125	-1101.606811523438	-313.4882812500001	1279.524536132813	-1043.253295898438	-32.30245208740235	1321.152221679688	-987.3787231445315	-28.08580780029298	1283.9892578125	-1053.524536132813	57.94186782836915	1317.215087890625	-979.5385742187502	-307.3105163574219	1521.998779296875	-502.6310424804689	-290.3160400390626	1311.302734375	-414.3947753906251	-242.3240509033204	1316.35205078125	-408.0555725097657	-249.5359191894532	1256.991455078125	-399.6829528808595	-197.6418762207032	1220.271484375	-385.4381408691407	-216.0962982177735	1181.086791992188	-453.3693237304689	74.79261779785158	1097.3173828125	-433.5872192382814	45.91067504882813	1059.446655273438	-372.9035339355469	158.0797576904297	1074.003540039063	-405.762420654297	-314.0970153808594	1114.776123046875	-898.304138183594	-304.5688781738282	1083.68408203125	-675.1324462890626	-491.5580139160157	1158.4384765625	-772.5938720703127	-496.2536010742189	1129.768310546875	-804.4495239257815	-493.5952453613282	1122.7412109375	-745.3449096679689	-297.1984558105469	861.6980590820315	-1016.817260742188	-236.4883117675782	803.701599121094	-1031.481567382813	-192.7308807373047	819.472595214844	-1019.280822753906	-242.0145111083985	742.3654785156251	-1031.062133789063	-206.5899353027344	642.1652832031251	-1036.927124023438	-174.5569458007813	593.2555541992189	-937.615173339844	-199.5875244140626	490.8481750488282	-1054.577026367188	-283.5061950683594	486.2480468750001	-1084.768310546875	-245.5492095947266	465.261688232422	-1078.528564453125	-271.2328491210938	383.9136352539063	-1052.78173828125	-402.0058593750001	260.5492248535157	-1093.567749023438	-369.1070251464844	235.9632415771485	-1015.230285644531	-476.8693847656251	225.4982147216797	-1045.700561523438	-262.0717163085938	139.1544494628907	-1083.255249023438	-273.0077209472657	152.0048217773438	-1123.07861328125	-330.9058837890626	156.1372833251953	-1164.838012695313	-344.6842346191407	811.6085205078127	-625.7310180664064	-298.5162963867188	762.5031127929689	-623.2038574218751	-267.2614135742188	769.765563964844	-627.1709594726564	-315.7697143554688	680.4179077148439	-641.7476806640626	-331.6874084472657	540.9558715820314	-677.4996948242189	-286.7608032226563	541.1981811523439	-788.912048339844	-291.7147216796876	330.4920959472657	-703.2639160156251	-376.6146240234376	265.1126098632813	-707.8331298828126	-330.7590942382813	255.9860229492188	-705.3149414062501	-309.7063903808594	209.9996337890626	-738.2125244140626	-375.9474487304688	113.9988632202149	-729.2114257812501	-340.7565002441407	141.2401123046875	-807.9392700195315	-440.4083251953126	96.38127136230472	-788.7134399414065	-213.5862121582032	64.80770874023439	-796.5137939453127	-218.0537719726563	58.16129684448244	-750.4529418945314	-274.6303710937501	30.44673347473145	-705.0910034179689	nan	nan	nan	nan	nan	nan	nan	nan	nan	
1870	9.345000000000001	-181.2586364746094	1730.551391601563	-600.0941162109376	-346.9122619628907	1764.9833984375	-710.3927612304689	-312.2825317382813	1745.114135742188	-574.0774536132814	-421.6941528320314	1591.709350585938	-667.8889770507814	-469.0296936035157	1290.306884765625	-752.4969482421876	-278.9161987304688	1516.903198242188	-695.8045043945314	-364.9603576660157	1596.859741210938	-859.6985473632815	-379.5776977539063	1422.5810546875	-1020.195434570313	-332.4574279785157	1429.283325195313	-1032.982177734375	-346.8270568847657	1379.778686523438	-1064.267822265625	-303.6689147949219	1340.6103515625	-1101.115356445313	-316.6459045410157	1277.016235351563	-1042.23681640625	-34.97905349731446	1312.821044921875	-989.6256103515627	-32.45872879028321	1275.8271484375	-1055.560302734375	55.33603668212892	1307.23974609375	-982.6597900390627	-306.4467773437501	1521.09326171875	-502.9419555664064	-292.3390808105469	1309.669311523438	-415.3526306152345	-244.4192504882813	1313.515991210938	-408.6773071289064	-253.0613403320313	1254.944946289063	-400.5537414550782	-201.5214080810547	1216.891723632813	-386.798065185547	-220.7358551025391	1178.451538085938	-454.9844360351564	68.32834625244142	1088.922485351563	-433.9493713378907	38.67378616333009	1051.708984375	-373.4234008789063	151.0312652587891	1063.735717773438	-405.9923400878907	-313.8373718261719	1114.7451171875	-898.5008544921877	-304.7427673339844	1083.3544921875	-675.2238769531251	-491.509002685547	1158.557495117188	-773.1324462890627	-496.2753906250001	1129.853271484375	-805.0537719726565	-493.7334594726564	1122.931518554688	-746.0007934570314	-296.7866516113282	861.3395996093752	-1016.573913574219	-236.3033599853516	803.0784912109377	-1030.858520507813	-191.91552734375	818.657897949219	-1018.3798828125	-241.9032287597657	741.8806152343751	-1030.376953125	-206.7149047851563	641.3645629882814	-1036.115356445313	-174.8559112548828	592.9016723632814	-936.4768066406252	-198.6831054687501	490.1396789550782	-1053.3583984375	-282.5804443359376	484.5056457519532	-1084.14453125	-244.2704010009766	463.7543029785157	-1077.385009765625	-268.9158935546876	383.0339355468751	-1052.014892578125	-398.7996215820314	257.8314819335938	-1093.66357421875	-366.2677307128907	233.7732696533204	-1015.003540039063	-473.5624084472657	222.4603424072266	-1046.145263671875	-258.1560363769532	137.0753631591797	-1081.947998046875	-268.8060607910157	149.44580078125	-1121.751220703125	-326.3774108886719	153.137939453125	-1164.06787109375	-344.8953552246094	811.6145019531252	-626.1953735351564	-298.8309631347657	762.4938964843751	-623.3872680664064	-267.5679931640626	769.7325439453127	-627.5245971679689	-316.2431030273438	680.1407470703126	-642.2982177734376	-331.7965393066407	540.9625854492189	-677.7875976562501	-286.8528442382813	541.2000732421876	-789.294372558594	-291.7399291992188	330.6187744140626	-703.5683593750001	-376.5980224609376	265.1614990234376	-708.0062255859376	-330.6555175781251	255.9313507080079	-705.5485229492189	-309.7640075683594	209.9894561767579	-738.4448852539064	-375.8646545410157	114.0012664794922	-729.3370971679689	-340.7638549804688	141.1442260742188	-808.1638183593752	-440.3701477050782	96.33703613281253	-788.7634887695315	-213.6043090820313	64.74806976318361	-796.5750122070315	-218.0408782958985	58.05154418945314	-750.5444946289064	-274.6441345214844	30.47376823425294	-705.1193237304689	nan	nan	nan	nan	nan	nan	nan	nan	nan	
